<svg xmlns="http://www.w3.org/2000/svg" width="42.064" height="26.386" viewBox="0 0 42.064 26.386">
    <path data-name="Path 26354" d="M41.132 111.591a.616.616 0 1 0-1.063.624 5.547 5.547 0 1 1-9.858.557l1.637 1.557a3.507 3.507 0 1 0 2.574-2.706l-1.637-1.557a5.542 5.542 0 0 1 6.1.731.616.616 0 0 0 .8-.938 6.775 6.775 0 0 0-7.833-.685l-.758-.721a7.669 7.669 0 0 1 3.8-1 7.808 7.808 0 0 1 1.225.1.616.616 0 0 0 .5-.143l1.944-1.684a2.479 2.479 0 0 0 .69-.976c.519-1.335.545-3.855-.446-4.986a13.38 13.38 0 0 0-11.35-4.3 1.529 1.529 0 0 0-1.2 2.308l.271.455h-1.285a.616.616 0 1 0 0 1.232h1.987a4.439 4.439 0 0 1 .4 2 6.822 6.822 0 0 0-10.09 1.172H13.1a1.542 1.542 0 0 1-.962-.339l-4.506-3.627a.616.616 0 0 0-.386-.136H3.56a1.855 1.855 0 0 0-1.082 3.361l1.326.952a.616.616 0 1 0 .719-1l-1.323-.953a.622.622 0 0 1 .363-1.128H7.03l4.34 3.487a2.778 2.778 0 0 0 1.734.61h4.664l3.99 1.525 2.2.839a6.615 6.615 0 0 1-4 1.357H18.6a3.8 3.8 0 0 0-3.332 1.978l-1.018-.732-8.053-5.784a.616.616 0 1 0-.719 1l7.3 5.245-1.328.817a6.79 6.79 0 1 0 1.894 3.218l1.459-.9v4.62A3.2 3.2 0 0 0 18 120.238h2.969v.329h-4.02a.616.616 0 0 0 0 1.232h4.631a.616.616 0 0 0 .616-.616v-.945h5.654a.616.616 0 0 0 .52-.946 7.712 7.712 0 0 1 .01-8.261l.894.85a6.78 6.78 0 1 0 11.858-.291zm-3.577 3.429a2.272 2.272 0 0 1-4.5.461l.938.892a1.867 1.867 0 1 0 2.573-2.706l-.938-.892a2.275 2.275 0 0 1 1.927 2.245zm.53-14.131a5.187 5.187 0 0 1-.009 3.476 1.762 1.762 0 0 1 .009-3.476zm-14.979.086a5.549 5.549 0 0 1 4.224 1.925 5.192 5.192 0 0 1-2.176 2.458l-5.14-1.965-1.172-.448a5.561 5.561 0 0 1 4.264-1.971zm-8.259 9.8a4.092 4.092 0 0 0-.026.192l-5.477 3.37h-.006l-1.844 1.135a.635.635 0 1 1-.651-1.09l1.933-1.182h.005l2.883-1.774 2.194-1.35zm-9.28 5.121a1.871 1.871 0 0 0 2.568.632l.615-.378a2.273 2.273 0 1 1-1.639-3.376l-.909.559a1.867 1.867 0 0 0-.635 2.563zm6.761-.875a5.554 5.554 0 1 1-1.975-4.241l-1.894 1.165a3.5 3.5 0 1 0 1.821 3.264l1.954-1.2a5.527 5.527 0 0 1 .094 1.011zm14.48 3.987H18a1.964 1.964 0 0 1-1.961-1.962v-5.668a2.57 2.57 0 0 1 2.146-2.53c1.1-.183 3.563.475 6.31-1.493 1.943-1.392 3.706-2.281 4.252-4.891a5.675 5.675 0 0 0-.187-3.009h.73a.616.616 0 0 0 0-1.232h-1.327l-.646-1.085a.3.3 0 0 1 .229-.449 12.362 12.362 0 0 1 9.662 3.181 2.994 2.994 0 0 0-.092 5.476l-1.091.945a8.952 8.952 0 0 0-10.081 8.878 8.933 8.933 0 0 0 .863 3.837zm3.241-9.841 1.3 1.235 4.372 4.158a.635.635 0 0 1-.875.92l-4.372-4.157-1.342-1.276a7.8 7.8 0 0 1 .917-.882z" transform="translate(0 -95.413)" style="fill:#6f727b"/>
</svg>
