<svg xmlns="http://www.w3.org/2000/svg" width="51.747" height="23.453" viewBox="0 0 51.747 23.453">
    <g data-name="Group 2244">
        <g data-name="Group 2226">
            <path data-name="Path 1611" d="M60.852 45.989a.808.808 0 0 1-.809-.809 4.027 4.027 0 0 0-3.37-3.987.808.808 0 0 1 .267-1.593 5.638 5.638 0 0 1 4.72 5.581.808.808 0 0 1-.808.808z" transform="translate(-10.72 -32.237)" style="fill:#6f727b"/>
        </g>
        <g data-name="Group 2227">
            <path data-name="Path 1612" d="M61.81 48.738a.808.808 0 0 1-.81-.809v-1.615a.809.809 0 1 1 1.617 0v1.615a.808.808 0 0 1-.807.809z" transform="translate(-11.678 -33.37)" style="fill:#6f727b"/>
        </g>
        <g data-name="Group 2228">
            <path data-name="Path 1613" d="M62.426 53.163a.808.808 0 0 1-.809-.809V49.12h-.809a.809.809 0 0 1 0-1.617h1.617a.808.808 0 0 1 .809.809v4.043a.808.808 0 0 1-.808.808z" transform="translate(-11.487 -33.753)" style="fill:#6f727b"/>
        </g>
        <g data-name="Group 2229">
            <path data-name="Path 1614" d="M39.32 54.12H19.635a.809.809 0 1 1 0-1.617H39.32a.809.809 0 1 1 0 1.617z" transform="translate(-3.604 -34.71)" style="fill:#6f727b"/>
        </g>
        <g data-name="Group 2230">
            <path data-name="Path 1615" d="M4.045 53.546a.805.805 0 0 1-.484-.162L.323 50.959a.808.808 0 0 1 .969-1.293l3.238 2.425a.808.808 0 0 1-.485 1.455z" transform="translate(0 -34.136)" style="fill:#6f727b"/>
        </g>
        <g data-name="Group 2231">
            <path data-name="Path 1616" d="M.809 48.822A.808.808 0 0 1 0 48.013v-9.705a.809.809 0 0 1 1.617 0v9.706a.808.808 0 0 1-.808.808z" transform="translate(0 -31.838)" style="fill:#6f727b"/>
        </g>
        <g data-name="Group 2232">
            <path data-name="Path 1617" d="M4.853 39.116H.809a.809.809 0 1 1 0-1.617h4.044a.809.809 0 1 1 0 1.617z" transform="translate(0 -31.838)" style="fill:#6f727b"/>
        </g>
        <g data-name="Group 2233">
            <path data-name="Path 1618" d="M38.152 38.585a.805.805 0 0 1-.536-.2c-.07-.063-7.165-6.267-15.64-6.267-8.521 0-15.6 5.436-15.669 5.491a.808.808 0 1 1-.993-1.276C5.62 36.091 12.9 30.5 21.976 30.5c9.1 0 16.407 6.4 16.713 6.675a.809.809 0 0 1-.538 1.413z" transform="translate(-.957 -30.497)" style="fill:#6f727b"/>
        </g>
        <g data-name="Group 2234">
            <path data-name="Path 1619" d="M54.7 41h-.08l-8.893-.876a.808.808 0 0 1 .158-1.609l8.893.876A.808.808 0 0 1 54.7 41z" transform="translate(-8.615 -32.03)" style="fill:#6f727b"/>
        </g>
        <g data-name="Group 2235">
            <path data-name="Path 1620" d="M41.6 40.117H23.813a.809.809 0 1 1 0-1.617H41.6a.809.809 0 1 1 0 1.617z" transform="translate(-4.404 -32.029)" style="fill:#6f727b"/>
        </g>
        <g data-name="Group 2236">
            <path data-name="Path 1621" d="M21.705 39.155a.8.8 0 0 1-.336-.074l-8.9-4.064a.808.808 0 0 1 .673-1.47l8.9 4.064a.808.808 0 0 1-.337 1.544z" transform="translate(-2.298 -31.067)" style="fill:#6f727b"/>
        </g>
        <g data-name="Group 2237">
            <path data-name="Path 1622" d="M23.813 38.6a.808.808 0 0 1-.813-.807v-6.4a.809.809 0 1 1 1.617 0v6.4a.808.808 0 0 1-.804.807z" transform="translate(-4.404 -30.513)" style="fill:#6f727b"/>
        </g>
        <g data-name="Group 2238">
            <path data-name="Path 1623" d="M12.064 56.631a6.064 6.064 0 1 1 6.064-6.064 6.07 6.07 0 0 1-6.064 6.064zm0-10.511a4.447 4.447 0 1 0 4.447 4.447 4.453 4.453 0 0 0-4.447-4.447z" transform="translate(-1.148 -33.178)" style="fill:#6f727b"/>
        </g>
        <g data-name="Group 2239">
            <path data-name="Path 1624" d="M12.83 54.163a2.83 2.83 0 1 1 2.83-2.83 2.833 2.833 0 0 1-2.83 2.83zm0-4.043a1.213 1.213 0 1 0 1.213 1.213 1.214 1.214 0 0 0-1.213-1.213z" transform="translate(-1.914 -33.944)" style="fill:#6f727b"/>
        </g>
        <g data-name="Group 2240">
            <path data-name="Path 1625" d="M49.063 56.631a6.064 6.064 0 1 1 6.064-6.064 6.07 6.07 0 0 1-6.064 6.064zm0-10.511a4.447 4.447 0 1 0 4.447 4.447 4.453 4.453 0 0 0-4.447-4.447z" transform="translate(-8.232 -33.178)" style="fill:#6f727b"/>
        </g>
        <g data-name="Group 2241">
            <path data-name="Path 1626" d="M49.825 54.163a2.83 2.83 0 1 1 2.83-2.83 2.833 2.833 0 0 1-2.83 2.83zm0-4.043a1.213 1.213 0 1 0 1.213 1.213 1.214 1.214 0 0 0-1.213-1.213z" transform="translate(-8.997 -33.944)" style="fill:#6f727b"/>
        </g>
        <g data-name="Group 2242">
            <path data-name="Path 1627" d="M6.568 54.12H4.813a.809.809 0 1 1 0-1.617h1.755a.809.809 0 1 1 0 1.617z" transform="translate(-.766 -34.71)" style="fill:#6f727b"/>
        </g>
        <g data-name="Group 2243">
            <path data-name="Path 1628" d="M61.626 54.12h-4.993a.809.809 0 0 1 0-1.617h4.994a.809.809 0 1 1 0 1.617z" transform="translate(-10.687 -34.71)" style="fill:#6f727b"/>
        </g>
    </g>
</svg>
