<svg xmlns="http://www.w3.org/2000/svg" width="15.838" height="21.117" viewBox="0 0 15.838 21.117">
    <g data-name="Group 5721">
        <g data-name="Group 2665">
            <g data-name="placeholder (3)">
                <g data-name="Group 2659">
                    <g data-name="Group 2658">
                        <path data-name="Path 1858" d="M71.919 0A7.927 7.927 0 0 0 64 7.919c0 5.489 7.148 12.7 7.452 13.006a.663.663 0 0 0 .934 0c.3-.3 7.452-7.516 7.452-13.006A7.927 7.927 0 0 0 71.919 0zm0 19.5c-1.576-1.687-6.6-7.391-6.6-11.584a6.6 6.6 0 1 1 13.2 0c-.001 4.192-5.024 9.9-6.6 11.584z" transform="translate(-64)" style="fill:#3ba5e0"/>
                    </g>
                </g>
            </g>
            <ellipse data-name="Ellipse 269" cx="4.207" cy="4.204" rx="4.207" ry="4.204" transform="rotate(39 .48 11.404)" style="fill:#4da424"/>
            <path data-name="Path 1860" d="M1.989 4.233 0 2.683l.566-.726 1.222.952L3.8 0l.76.524z" transform="rotate(14.98 -18.311 26.365)" style="fill:#fff"/>
        </g>
    </g>
</svg>
