<svg xmlns="http://www.w3.org/2000/svg" width="37.696" height="27.644" viewBox="0 0 37.696 27.644">
    <path data-name="Path 113934" d="M35.871 34.747a1.968 1.968 0 0 0 1.1-.854 1.931 1.931 0 0 0 .069-1.905c-1.4-2.671-4.375-3.257-5.655-3.386-.285-3.048-2.637-6.435-3.663-7.783a1.457 1.457 0 0 0 .305-1.949l-1.48-2.22a1.456 1.456 0 0 0-2.145-.313l-1.86 1.548h-3.066a1.885 1.885 0 1 0 0 3.77h2.652c2.465 5.4 3 7.764 3 8.8a8.347 8.347 0 0 1-.4 2.668 1.638 1.638 0 0 1-1.562 1.1h-2.032a1.661 1.661 0 0 1-1.659-1.659v-2.121a3.749 3.749 0 0 0-1.208-2.754 2.192 2.192 0 0 0-.991-4.15H5.34a2.195 2.195 0 0 0-1.272 3.986A7.531 7.531 0 0 0 0 34.205a1.268 1.268 0 0 0 .372.9 1.242 1.242 0 0 0 .885.368h1.117a5.02 5.02 0 1 0 8.892 3.77h2.064a1.263 1.263 0 0 0 1.088.628h13.391a5.023 5.023 0 1 0 8.063-5.127zM18.848 19.769a.628.628 0 0 1 .628-.628h2.2a2.461 2.461 0 0 0-.056 1.259h-2.145a.628.628 0 0 1-.628-.628zM5.34 26.68a.942.942 0 1 1 0-1.885h11.937a.942.942 0 0 1 0 1.885zm.942 15.706a3.773 3.773 0 0 1-3.77-3.77 3.725 3.725 0 0 1 1.7-3.141h4.139a3.725 3.725 0 0 1 1.7 3.141 3.773 3.773 0 0 1-3.77 3.77zm4-6.81a3.724 3.724 0 0 1 2.692 2.412h-1.7a5.05 5.05 0 0 0-.996-2.412zm4.133 3.035a5.027 5.027 0 0 0-4.986-4.392l-8.167-.012a6.278 6.278 0 0 1 6.278-6.271h8.174a2.51 2.51 0 0 1 2.507 2.507v2.117a2.918 2.918 0 0 0 2.915 2.915h2.036a2.894 2.894 0 0 0 2.753-1.955 9.6 9.6 0 0 0 .464-3.071c0-1.752-1.164-5.138-3.459-10.065a1.225 1.225 0 0 1 .33-1.461l1.946-1.623a.2.2 0 0 1 .159-.044.193.193 0 0 1 .136.086l1.481 2.222a.2.2 0 0 1-.078.292l-.414.207a.629.629 0 0 0-.2.965c.039.046 3.868 4.669 3.868 8.163a.629.629 0 0 0 .627.628c.038 0 3.729.045 5.142 2.745a.677.677 0 0 1-.028.672.723.723 0 0 1-.62.352H32.67a5.032 5.032 0 0 0-5.026 5.026l-13.233-.005zm18.255 3.775a3.77 3.77 0 1 1 3.77-3.77 3.773 3.773 0 0 1-3.77 3.77z" transform="translate(0 -15.999)" style="fill:#6f727b"/>
</svg>
